<?xml version="1.0"?>
<svg xmlns="http://www.w3.org/2000/svg" viewBox="0 0 512 512" width="512" height="512"><g id="outline"><path d="M483.312,360,261.656,138.344a8,8,0,0,0-11.312,0L28.688,360H16v16H496V360Zm-78.624-56L384,324.688,363.312,304,384,283.312Zm-32-32L352,292.688,331.312,272,352,251.312ZM256,260.688,235.312,240,256,219.312,276.688,240Zm32-9.376L308.688,272,288,292.688,267.312,272ZM244.688,272,224,292.688,203.312,272,224,251.312Zm-32,32L192,324.688l-11.6-11.6,13.792-27.583ZM224,315.312,236.688,328H211.312ZM235.312,304,256,283.312,276.688,304,256,324.688ZM288,315.312,300.688,328H275.312ZM299.312,304l18.5-18.5L331.6,313.088l-11.6,11.6Zm41.376-64-18.5,18.5L308.4,230.912l11.6-11.6ZM288,187.312,308.688,208l-7.829,7.828-13.791-27.583Zm.932,40.443-.932.933L267.312,208l7.829-7.828ZM256,161.891l11.6,23.2-11.6,11.6-11.6-11.6ZM244.688,208,224,228.688l-.932-.933,13.791-27.583ZM224,187.312l.932.933-13.791,27.583L203.312,208Zm-32,32,11.6,11.6L189.807,258.5,171.312,240Zm-32,32L180.688,272,160,292.688,139.312,272Zm-32,32L148.688,304,128,324.688,107.312,304ZM51.312,360,64,347.312,76.688,360Zm24-24L96,315.312,116.688,336,96,356.688Zm63.743,24H115.312L128,347.312l11.6,11.6Zm.257-24L160,315.312l.932.933-13.791,27.583Zm19.756,19.755,13.791-27.583L180.688,336,160,356.688ZM179.312,360l16-16H316.688l16,16ZM352,356.688,331.312,336l7.829-7.828,13.791,27.583Zm12.859-12.86-13.791-27.583.932-.933L372.688,336ZM372.945,360l-.544-1.088,11.6-11.6L396.688,360Zm22.367-24L416,315.312,436.688,336,416,356.688Zm40,24L448,347.312,460.688,360Z"/></g></svg>
